<?xml version="1.0" encoding="utf-8"?>
<!-- Generator: Adobe Illustrator 24.3.0, SVG Export Plug-In . SVG Version: 6.00 Build 0)  -->
<svg version="1.1" id="Layer_1" xmlns="http://www.w3.org/2000/svg" xmlns:xlink="http://www.w3.org/1999/xlink" x="0px" y="0px"
	 viewBox="0 0 100 100" style="enable-background:new 0 0 100 100;" xml:space="preserve">
<style type="text/css">
	.st0{fill:none;stroke:#050505;stroke-linecap:round;stroke-linejoin:round;stroke-miterlimit:10;}
</style>
<g id="Layer_8">
	<g>
		<path class="st0" d="M24.74,45.37c-0.75,0.19-1.21,0.97-1.02,1.72c3.09,11.92,13.86,20.28,26.21,20.28
			C64.86,67.36,77,55.22,77,40.29S64.86,13.22,49.93,13.22c-15.23,0-27.58,12.65-27.07,28.01c0.03,0.78,0.67,1.4,1.45,1.37
			c0.78-0.03,1.4-0.67,1.37-1.45c-0.48-13.78,10.61-25.11,24.25-25.11c13.37,0,24.25,10.88,24.25,24.25S63.3,64.54,49.93,64.54
			c-11.06,0-20.7-7.47-23.5-18.15C26.27,45.63,25.49,45.18,24.74,45.37L24.74,45.37z"/>
		<g>
			<path class="st0" d="M40.74,53.48c0,0.56-0.46,1.02-1.02,1.02h-4.75c-0.35,0-0.62-0.3-0.62-0.62V36.8c0-0.35,0.3-0.62,0.62-0.62
				h4.75c0.56,0,1.02,0.46,1.02,1.02V53.48z M65.56,40.34v9.24c0,3.14-2.55,5.72-5.72,5.72H45.63c-1.05,0-1.91-0.86-1.91-1.91V37.77
				c0-1.05,0.86-1.91,1.91-1.91h3.09c0.75,0,1.45-0.32,1.93-0.91l7.28-8.81c1.26-1.56,3.73-0.91,4,1.05
				c0.19,1.42-0.7,1.88-2.85,4.59c-1.32,1.64-0.13,4.06,1.96,4.06C63.54,35.86,65.56,37.87,65.56,40.34L65.56,40.34z"/>
			<path class="st0" d="M81.67,61.05c6.45-2.18,8.75-10.88,3.22-15.87c-2.9-2.63-2.87-7.17,0-9.77c2.01-1.83,3.12-4.27,3.12-6.9
				c0-5.21-4.24-9.78-9.91-9.45c-2.71,0.13-5.24-1.42-6.34-3.89c-0.32-0.7-1.15-1.02-1.85-0.7c-0.7,0.32-1.02,1.15-0.7,1.85
				c1.58,3.52,5.18,5.75,9.05,5.53c6.18-0.38,9.37,7.3,4.75,11.47c-4.14,3.73-4.14,10.23,0,13.96c4.08,3.68,2.04,10.12-2.74,11.28
				c-1.32,0.32-2.01,0.11-3.12,0.19c-4.97,0.32-9,4.57-8.75,9.86c0.27,6.34-7.38,9.26-11.47,4.75c-3.71-4.11-10.2-4.16-13.96,0
				c-4.11,4.54-11.74,1.58-11.47-4.75c0.24-5.4-3.65-9.86-10.26-9.86c-6.02,0-8.84-7.44-4.38-11.47c4.14-3.73,4.14-10.23,0-13.96
				c-4.62-4.16-1.42-11.82,4.75-11.47c5.4,0.27,9.88-4.03,9.88-9.37c0-0.35-0.03-0.54-0.03-0.86c0-4.11,3.38-6.55,6.66-6.55
				c1.29,0,3.17,0.38,4.81,2.2c3.73,4.14,10.23,4.14,13.96,0c3.81-4.24,10.5-1.88,11.39,3.22c0.13,0.78,0.86,1.29,1.61,1.15
				c0.78-0.13,1.29-0.86,1.15-1.61C69.77,2.48,60.16-0.5,54.81,5.41c-2.6,2.9-7.17,2.9-9.77,0c-3.76-4.14-9.75-3.97-13.43-0.56
				c-2.09,1.88-3.06,4.54-2.93,7.25c0.19,3.92-3.01,7.12-6.9,6.9c-2.79-0.16-5.45,0.89-7.33,2.93c-3.44,3.71-3.57,9.72,0.56,13.43
				c2.87,2.6,2.9,7.14,0,9.78c-2.01,1.83-3.12,4.27-3.12,6.9c0,3.92,2.47,7.68,6.34,8.97L6.42,81.89c-1.29,2.28,0.59,5.05,3.17,4.7
				c11.52-1.42,11.49-1.75,11.71-1.29l4.57,10.5c1.05,2.42,4.38,2.55,5.67,0.3L42.11,77.4c1.1-0.54,2.12-1.29,2.98-2.23
				c2.6-2.9,7.17-2.9,9.78,0c0.86,0.97,1.88,1.72,2.98,2.23l5.08,8.97c0.38,0.67,1.24,0.91,1.91,0.54c0.67-0.38,0.91-1.24,0.54-1.91
				l-3.79-6.69c4.67,0.27,9.67-3.63,9.67-9.37c0-0.38-0.03-0.59-0.03-0.86c0-3.63,2.95-6.58,6.58-6.58c0.19,0,0.78,0.03,0.97,0.03
				c13.1,23.2,12.38,21.81,12.38,21.97c0,0.16-0.13,0.38-0.4,0.35c-11.84-1.56-11.36-1.53-11.76-1.53c-1.26,0-2.39,0.75-2.9,1.91
				c-4.81,10.69-4.4,10.71-4.89,10.71c-0.38,0-0.11,0.05-3.03-5.02c-0.38-0.67-1.24-0.91-1.91-0.54c-0.67,0.38-0.91,1.24-0.54,1.91
				l2.74,4.83c1.29,2.28,4.62,2.07,5.67-0.3c4.73-10.55,4.43-10.77,4.94-10.69c11.92,1.56,11.39,1.53,11.76,1.53
				c1.75,0,3.17-1.42,3.17-3.17C93.91,82.05,94.1,83.31,81.67,61.05L81.67,61.05z M28.74,94.94c-0.43-0.03-0.05,0.13-4.86-10.71
				c-0.54-1.24-1.85-2.07-3.33-1.88C8.92,83.77,9.11,84.06,8.87,83.69c-0.27-0.38-0.48,0.7,12.3-22.18c5.51,0.35,7.71,3.22,7.52,6.9
				c-0.13,2.71,0.83,5.4,2.93,7.33c1.96,1.8,4.67,2.69,6.71,2.55C28.52,95.48,29.19,94.97,28.74,94.94L28.74,94.94z"/>
		</g>
	</g>
</g>
</svg>
