<?xml version="1.0" encoding="utf-8"?>
<!-- Generator: Adobe Illustrator 24.3.0, SVG Export Plug-In . SVG Version: 6.00 Build 0)  -->
<svg version="1.1" id="Layer_1" xmlns="http://www.w3.org/2000/svg" xmlns:xlink="http://www.w3.org/1999/xlink" x="0px" y="0px"
	 viewBox="0 0 100 100" style="enable-background:new 0 0 100 100;" xml:space="preserve">
<style type="text/css">
	.st0{fill:none;stroke:#050505;stroke-linecap:round;stroke-linejoin:round;stroke-miterlimit:10;}
</style>
<g id="Layer_4">
	<g>
		<g>
			<g>
				<path class="st0" d="M95.53,48.62h-4.49V23.55c0-0.65-0.46-1.19-1.08-1.35l-28.3-6.28V4.46c0-0.76-0.62-1.38-1.38-1.38H41.19
					c-0.76,0-1.38,0.62-1.38,1.38v11.13l-29.76,6.61c-0.62,0.14-1.08,0.7-1.08,1.35v25.07H4.47c-0.76,0-1.38,0.62-1.38,1.38v5.88
					c0,0.76,0.62,1.38,1.38,1.38h4.74l7.12,38.53c0.11,0.65,0.68,1.14,1.35,1.14h64.63c0.68,0,1.25-0.46,1.35-1.14l7.12-38.53h4.74
					c0.76,0,1.38-0.62,1.38-1.38V50C96.91,49.24,96.29,48.62,95.53,48.62z M42.57,5.84h16.35v9.48l-8.61-1.92
					c-0.19-0.05-0.41-0.05-0.6,0l-7.15,1.6L42.57,5.84L42.57,5.84z M81.15,94.16H18.82L12,57.26H88L81.15,94.16z M94.15,54.49H5.82
					v-3.11h62.82c0.76,0,1.38-0.62,1.38-1.38s-0.62-1.38-1.38-1.38H11.7V24.66l38.29-8.5l38.29,8.5v23.96H75.14
					c-0.76,0-1.38,0.62-1.38,1.38s0.62,1.38,1.38,1.38h19.01L94.15,54.49L94.15,54.49z"/>
			</g>
		</g>
		<g>
			<g>
				<path class="st0" d="M52.21,25.12h-4.41c-0.76,0-1.38,0.62-1.38,1.38v17.63c0,0.76,0.62,1.38,1.38,1.38h4.41
					c0.76,0,1.38-0.62,1.38-1.38V26.5C53.56,25.74,52.96,25.12,52.21,25.12z"/>
			</g>
		</g>
		<g>
			<g>
				<path class="st0" d="M66.15,25.12h-4.41c-0.76,0-1.38,0.62-1.38,1.38v17.63c0,0.76,0.62,1.38,1.38,1.38h4.41
					c0.76,0,1.38-0.62,1.38-1.38V26.5C67.53,25.74,66.91,25.12,66.15,25.12z"/>
			</g>
		</g>
		<g>
			<g>
				<path class="st0" d="M80.83,25.12h-4.39c-0.76,0-1.38,0.62-1.38,1.38v17.63c0,0.76,0.62,1.38,1.38,1.38h4.41
					c0.76,0,1.38-0.62,1.38-1.38V26.5C82.21,25.74,81.61,25.12,80.83,25.12z"/>
			</g>
		</g>
		<g>
			<g>
				<path class="st0" d="M38.23,25.12h-4.41c-0.76,0-1.38,0.62-1.38,1.38v17.63c0,0.76,0.62,1.38,1.38,1.38h4.41
					c0.76,0,1.38-0.62,1.38-1.38V26.5C39.62,25.74,38.99,25.12,38.23,25.12z"/>
			</g>
		</g>
		<g>
			<g>
				<path class="st0" d="M23.56,25.12h-4.41c-0.76,0-1.38,0.62-1.38,1.38v17.63c0,0.76,0.62,1.38,1.38,1.38h4.41
					c0.76,0,1.38-0.62,1.38-1.38V26.5C24.94,25.74,24.32,25.12,23.56,25.12z"/>
			</g>
		</g>
		<g>
			<g>
				<path class="st0" d="M49.99,70.66c-6.23,0-11.29,5.06-11.29,11.29c0,5.69,4.22,9.1,11.29,9.1s11.29-3.38,11.29-9.1
					C61.28,75.72,56.21,70.66,49.99,70.66z"/>
			</g>
		</g>
		<g>
			<g>
				<path class="st0" d="M44.49,59.64c-2.82,0-4.68,3.49-4.68,5.79c0,2.57,2.11,4.68,4.68,4.68c2.57,0,4.68-2.11,4.68-4.68
					C49.17,63.13,47.31,59.64,44.49,59.64z"/>
			</g>
		</g>
		<g>
			<g>
				<path class="st0" d="M55.51,59.64c-2.82,0-4.68,3.49-4.68,5.79c0,2.57,2.11,4.68,4.68,4.68s4.68-2.11,4.68-4.68
					C60.19,63.13,58.33,59.64,55.51,59.64z"/>
			</g>
		</g>
		<g>
			<g>
				<path class="st0" d="M64.31,66.25c-2.82,0-4.68,3.49-4.68,5.79c0,2.57,2.11,4.68,4.68,4.68c2.57,0,4.68-2.11,4.68-4.68
					C68.99,69.74,67.13,66.25,64.31,66.25z"/>
			</g>
		</g>
		<g>
			<g>
				<path class="st0" d="M35.66,66.25c-2.82,0-4.68,3.49-4.68,5.79c0,2.57,2.11,4.68,4.68,4.68c2.57,0,4.68-2.11,4.68-4.68
					C40.35,69.74,38.48,66.25,35.66,66.25z"/>
			</g>
		</g>
	</g>
	<polyline class="st0" points="44.38,81.9 47.55,84.79 55.43,77.51 	"/>
</g>
</svg>
