<?xml version="1.0" encoding="utf-8"?>
<!-- Generator: Adobe Illustrator 24.3.0, SVG Export Plug-In . SVG Version: 6.00 Build 0)  -->
<svg version="1.1" id="Layer_1" xmlns="http://www.w3.org/2000/svg" xmlns:xlink="http://www.w3.org/1999/xlink" x="0px" y="0px"
	 viewBox="0 0 100 100" style="enable-background:new 0 0 100 100;" xml:space="preserve">
<style type="text/css">
	.st0{fill:none;stroke:#050505;stroke-linecap:round;stroke-linejoin:round;stroke-miterlimit:10;}
</style>
<g id="Layer_15">
	<g>
		<path class="st0" d="M96.32,81.53H86.28V67.96c3.77-0.7,6.61-3.83,6.61-7.6c0-1.91-0.75-6.67-2-11.02
			c-1.77-6.23-3.74-9.13-6.18-9.13c-2.44,0-4.41,2.9-6.18,9.13c-1.25,4.35-2,9.1-2,11.02c0,3.77,2.84,6.93,6.61,7.6v13.57H73.03
			v-38.5c1.91-0.64,3.31-2.46,3.31-4.61v-6.61c0-0.87-0.7-1.54-1.54-1.54h-1.77v-1.86h3.42c0.87,0,1.54-0.7,1.54-1.54
			c0-0.87-0.7-1.54-1.54-1.54h-9.92c-0.87,0-1.54,0.7-1.54,1.54c0,0.87,0.7,1.54,1.54,1.54h3.42v1.86h-1.77
			c-0.87,0-1.54,0.7-1.54,1.54v6.61c0,2.15,1.39,3.94,3.31,4.61v38.5h-5.42l-1.04-5.16h1.42c0.87,0,1.54-0.7,1.54-1.54
			c0-0.87-0.7-1.54-1.54-1.54H61.5v-3.51h1.77c0.87,0,1.54-0.7,1.54-1.54c0-0.87-0.7-1.54-1.54-1.54H61.5v-1.86h1.77
			c0.87,0,1.54-0.7,1.54-1.54c0-0.87-0.7-1.54-1.54-1.54H33.49c-0.87,0-1.54,0.7-1.54,1.54c0,0.87,0.7,1.54,1.54,1.54h1.77v1.86
			h-1.77c-0.87,0-1.54,0.7-1.54,1.54c0,0.87,0.7,1.54,1.54,1.54h1.77v3.51h-3.42c-0.87,0-1.54,0.7-1.54,1.54
			c0,0.87,0.7,1.54,1.54,1.54h1.42l-1.04,5.16H20.15V66.34c6.49-0.78,11.57-6.32,11.57-13.02c0-11.65-11.25-35.98-11.71-37.02
			c-0.26-0.55-0.81-0.9-1.39-0.9c-0.58,0-1.16,0.35-1.42,0.9C16.73,17.34,5.48,41.66,5.48,53.32c0,6.7,5.07,12.26,11.57,13.02v15.19
			H3.71c-0.87,0-1.54,0.7-1.54,1.54c0,0.87,0.7,1.54,1.54,1.54h92.57c0.87,0,1.54-0.7,1.54-1.54
			C97.85,82.23,97.16,81.53,96.32,81.53L96.32,81.53z M79.67,60.34c0-1.39,0.61-5.51,1.74-9.68c1.65-6.06,3.04-7.19,3.31-7.34
			c0.26,0.17,1.65,1.28,3.31,7.34c1.13,4.17,1.74,8.29,1.74,9.68c0,2.06-1.48,3.83-3.51,4.44v-3.19c0-0.87-0.7-1.54-1.54-1.54
			c-0.87,0-1.54,0.7-1.54,1.54v3.19C81.15,64.16,79.67,62.42,79.67,60.34L79.67,60.34z M69.76,33.37h3.51v5.07
			c0,0.96-0.78,1.77-1.77,1.77c-0.96,0-1.77-0.78-1.77-1.77v-5.07H69.76z M8.58,53.32c0-8.61,6.96-25.54,10.03-32.56
			c3.04,7.02,10.03,23.95,10.03,32.56c0,4.99-3.68,9.16-8.47,9.92v-9.25l4.49-4.49c0.61-0.61,0.61-1.59,0-2.2s-1.59-0.61-2.2,0
			l-2.32,2.32v-2.87c0-0.87-0.7-1.54-1.54-1.54c-0.87,0-1.54,0.7-1.54,1.54v7.83l-2.32-2.32c-0.61-0.61-1.59-0.61-2.2,0
			c-0.61,0.61-0.61,1.59,0,2.2l4.49,4.49v4.29C12.27,62.48,8.58,58.31,8.58,53.32L8.58,53.32z M38.33,64.8h20.03v1.86H38.33
			L38.33,64.8L38.33,64.8z M38.33,69.76h20.03v3.51H38.33L38.33,69.76L38.33,69.76z M36.39,76.37h23.92l1.04,5.16H35.31L36.39,76.37
			z"/>
	</g>
</g>
</svg>
