<?xml version="1.0" encoding="utf-8"?>
<!-- Generator: Adobe Illustrator 24.3.0, SVG Export Plug-In . SVG Version: 6.00 Build 0)  -->
<svg version="1.1" id="Layer_1" xmlns="http://www.w3.org/2000/svg" xmlns:xlink="http://www.w3.org/1999/xlink" x="0px" y="0px"
	 viewBox="0 0 100 100" style="enable-background:new 0 0 100 100;" xml:space="preserve">
<style type="text/css">
	.st0{fill:none;stroke:#050505;stroke-linecap:round;stroke-linejoin:round;stroke-miterlimit:10;}
</style>
<g>
	<g>
		<g>
			<path class="st0" d="M43.37,38.64c-0.29-2.74-1.13-3.32-1.13-3.32c-0.42-0.45-0.87-0.76-1.34-0.95"/>
			<path class="st0" d="M32.74,36.58c-0.32,0.08-0.58,0.4-0.55,0.74c0.18,2.93,2.87,3.64,4.11,3.82c0.32,0.05,0.61,0.32,0.63,0.63
				l0.21,2.14c0.26-0.05,0.53-0.11,0.82-0.13c0.18-0.18,0.55-0.61,0.58-1.24c0-0.24,0.13-0.47,0.32-0.61
				c0.16-0.13,0.37-0.16,0.55-0.11c0.63,0.16,1.4,0.84,1.48,3.19c0.4,0.26,1.19,0.9,1.74,2.03c0.29,0.61,0.55,1.4,0.61,2.4
				c1.42-0.98,2.58-2.35,3.32-3.93l-0.37-0.74c0,0-2.69-2-2.72-4.14c0-0.42,0-0.79-0.03-1.13c-1.05,1.11-2.24,1.4-3.16,1.4
				c-0.66,0-1.19-0.13-1.48-0.24c-0.32-0.11-0.55-0.45-0.58-0.76c-0.13-2.06,1.4-4.61,2.08-5.67c-1.82-0.37-3.64,0.69-4.19,0.87
				c-0.74,0.26-0.79,0.87-0.79,0.87L32.74,36.58L32.74,36.58z M36.75,37.27c-0.18,0-0.32-0.16-0.32-0.32c0-0.18,0.16-0.32,0.32-0.32
				c0.18,0,0.32,0.16,0.32,0.32C37.09,37.11,36.93,37.27,36.75,37.27L36.75,37.27z"/>
			<path class="st0" d="M38.09,44.36c-1.5,0.11-2.69,0.79-2.79,1.61l0,0c-0.08,0.61-0.84,1.42-1.21,1.79
				c-0.11,0.11-0.11,0.29-0.03,0.42c0.13,0.16,0.29,0.37,0.47,0.71c0.37,0.66,1.24,0.61,1.24,0.61l1.87,0.71
				c0.16,0.05,0.26,0.24,0.26,0.4l-0.03,0.45c1.77-0.03,3.4-0.53,4.8-1.37 M36.43,46.78c-0.18,0-0.34-0.16-0.34-0.32
				c0-0.18,0.16-0.32,0.34-0.32s0.32,0.16,0.32,0.32C36.75,46.62,36.62,46.78,36.43,46.78L36.43,46.78z"/>
		</g>
		<circle class="st0" cx="38.33" cy="42.33" r="8.81"/>
	</g>
	<g>
		<polygon class="st0" points="43.69,32.79 83.72,19.74 92.02,28.39 65.17,44.76 		"/>
		<path class="st0" d="M3.84,30.37c0,0,10.38-10.81,30.75-2.09C45.45,32.94,76,51.09,76,51.09l16.02-8.6l4.45,4.48L88.8,58.96
			l7.67,5.96c0,0-3.6,4.2-14.91,2.69c0,0-18.68-2.44-50.79-16.67S3.84,30.37,3.84,30.37z"/>
		<polygon class="st0" points="19.48,75.74 25.66,48.6 45.63,57.1 27.52,80.26 		"/>
		<path class="st0" d="M21.24,33.32c0,0-10.71,1.86-17.4-2.94"/>
	</g>
</g>
</svg>
