<?xml version="1.0" encoding="utf-8"?>
<!-- Generator: Adobe Illustrator 24.3.0, SVG Export Plug-In . SVG Version: 6.00 Build 0)  -->
<svg version="1.1" id="Layer_1" xmlns="http://www.w3.org/2000/svg" xmlns:xlink="http://www.w3.org/1999/xlink" x="0px" y="0px"
	 viewBox="0 0 100 100" style="enable-background:new 0 0 100 100;" xml:space="preserve">
<style type="text/css">
	.st0{fill:none;stroke:#050505;stroke-miterlimit:10;}
</style>
<g id="Layer_13">
	<g>
		<g>
			<g>
				<path class="st0" d="M92.81,13.59H7.19c-1.46,0-2.66,1.21-2.66,2.66v67.5c0,1.46,1.21,2.66,2.66,2.66h85.61
					c1.46,0,2.66-1.21,2.66-2.66v-67.5C95.47,14.79,94.29,13.59,92.81,13.59z M90.14,81.08H9.86V34.9h80.29V81.08z M90.14,29.57
					H9.86V18.92h80.29V29.57z"/>
			</g>
		</g>
		<g>
			<g>
				<path class="st0" d="M26.91,21.58H16.25c-1.46,0-2.66,1.21-2.66,2.66s1.21,2.66,2.66,2.66h10.66c1.46,0,2.66-1.21,2.66-2.66
					S28.39,21.58,26.91,21.58z"/>
			</g>
		</g>
		<g>
			<g>
				<path class="st0" d="M50.01,41.12c-9.31,0-16.88,7.57-16.88,16.88c0,9.28,7.57,16.88,16.88,16.88S66.9,67.32,66.9,58.01
					C66.87,48.7,59.3,41.12,50.01,41.12z M38.46,57.98c0-6.37,5.19-11.55,11.55-11.55c2.22,0,4.29,0.64,6.06,1.71L40.2,64.01
					C39.08,62.3,38.46,60.22,38.46,57.98z M50.01,69.53c-2.22,0-4.29-0.64-6.06-1.71l15.87-15.87c1.09,1.77,1.71,3.84,1.71,6.06
					C61.54,64.34,56.38,69.53,50.01,69.53z"/>
			</g>
		</g>
	</g>
</g>
</svg>
