<?xml version="1.0" encoding="utf-8"?>
<!-- Generator: Adobe Illustrator 24.3.0, SVG Export Plug-In . SVG Version: 6.00 Build 0)  -->
<svg version="1.1" id="Layer_1" xmlns="http://www.w3.org/2000/svg" xmlns:xlink="http://www.w3.org/1999/xlink" x="0px" y="0px"
	 viewBox="0 0 100 100" style="enable-background:new 0 0 100 100;" xml:space="preserve">
<style type="text/css">
	.st0{fill:none;stroke:#050505;stroke-linecap:round;stroke-linejoin:round;stroke-miterlimit:10;}
</style>
<g id="Layer_7">
	<g>
		<g>
			<path class="st0" d="M9.8,84.46V15.54c0-3.15,2.59-5.74,5.74-5.74h57.41c3.15,0,5.74,2.59,5.74,5.74V49.3l5.74-5.74V15.54
				c0-6.34-5.15-11.48-11.48-11.48H15.54C9.2,4.06,4.06,9.21,4.06,15.54v68.89c0,6.34,5.15,11.48,11.48,11.48h31.59v-5.74H15.54
				C12.39,90.2,9.8,87.61,9.8,84.46L9.8,84.46z M67.23,21.28H21.28v5.74H67.2v-5.74H67.23z M67.23,32.76H21.28v5.74H67.2v-5.74
				H67.23z M67.23,44.24H21.28v5.74H67.2v-5.74H67.23z M21.28,61.5h22.96v-5.74H21.28V61.5z M94.24,55.76l-4.05-4.07
				c-1.13-1.13-2.59-1.7-4.05-1.7s-2.94,0.57-4.07,1.7L57.42,76.34c-1.13,1.13-4.55,5.44-4.55,6.93l-2.86,12.67l12.67-2.86
				c0,0,5.8-3.42,6.93-4.55l24.66-24.66C96.5,61.61,96.5,57.99,94.24,55.76L94.24,55.76z M67.56,86.48
				c-0.33,0.3-1.46,1.07-2.83,1.93l-7.44-7.44c0.77-1.04,1.61-2.08,2.14-2.62L78,59.8l8.12,8.12L67.56,86.48z"/>
		</g>
	</g>
</g>
</svg>
