<?xml version="1.0" encoding="utf-8"?>
<!-- Generator: Adobe Illustrator 24.3.0, SVG Export Plug-In . SVG Version: 6.00 Build 0)  -->
<svg version="1.1" id="Layer_1" xmlns="http://www.w3.org/2000/svg" xmlns:xlink="http://www.w3.org/1999/xlink" x="0px" y="0px"
	 viewBox="0 0 100 100" style="enable-background:new 0 0 100 100;" xml:space="preserve">
<style type="text/css">
	.st0{fill:none;stroke:#050505;stroke-linecap:round;stroke-linejoin:round;stroke-miterlimit:10;}
</style>
<g>
	<path class="st0" d="M46.11,37.26c-1.3,0.53-2.56,1.33-3.71,2.63c0,0-2.31,1.54-3.12,9.1"/>
	<path class="st0" d="M56.17,65.06l0.79-7.47c0.11-0.88,0.88-1.65,1.75-1.75c3.33-0.49,10.78-2.45,11.27-10.5
		c0.14-0.95-0.63-1.82-1.47-2.03l0,0l-7.11-1.72c0,0-0.21-1.72-2.21-2.42c-1.47-0.53-6.51-3.43-11.48-2.38
		c1.89,2.87,6.06,9.91,5.71,15.54c-0.04,0.88-0.74,1.79-1.61,2.07c-0.81,0.28-2.28,0.63-4.06,0.63c-2.56,0-5.81-0.81-8.72-3.82
		c-0.07,0.98-0.11,2.03-0.11,3.15c-0.04,5.85-7.46,11.38-7.46,11.38l-0.98,2.07c2.03,4.34,6.39,9.11,10.7,11.59 M57.45,45.17
		c-0.49,0-0.91-0.42-0.91-0.91c0-0.49,0.42-0.91,0.91-0.91s0.91,0.42,0.91,0.91C58.36,44.78,57.94,45.17,57.45,45.17L57.45,45.17z"
		/>
	<path class="st0" d="M61.41,69.11c-0.28-2.28-3.5-4.17-7.63-4.41c0,0-2.21-1.72-2.35-4.62c-0.04-0.46-0.35-0.88-0.77-0.77
		c-1.12,0.28-3.01,1.68-3.08,8.19c0,0-6.06,3.05-6.48,11.83c3.89,2.31,8.37,3.71,13.2,3.78l-0.07-1.26
		c-0.04-0.46,0.32-0.95,0.7-1.09l5.15-1.93c0,0,2.42,0.14,3.43-1.68c0.49-0.91,0.98-1.54,1.33-1.96c0.28-0.35,0.28-0.84-0.04-1.12
		C63.72,73.03,61.62,70.79,61.41,69.11L61.41,69.11z M58.36,71.31c-0.49,0-0.91-0.42-0.91-0.91c0-0.49,0.42-0.91,0.91-0.91
		s0.91,0.42,0.91,0.91C59.27,70.89,58.85,71.31,58.36,71.31L58.36,71.31z"/>
</g>
<g>
	<path class="st0" d="M5.81,43.8L5.81,43.8c-1.36-1.74-1.05-4.26,0.7-5.61L49.7,4.53l43.76,33.38c1.76,1.34,2.09,3.85,0.75,5.61l0,0
		c-1.34,1.76-3.85,2.09-5.61,0.75L49.75,14.63L11.42,44.5C9.68,45.86,7.16,45.55,5.81,43.8z"/>
</g>
<g>
	<polygon class="st0" points="85.39,94.88 14.73,94.88 14.73,41.92 20.77,37.09 20.77,89.41 79.34,89.41 79.34,37.09 85.39,41.76 	
		"/>
</g>
</svg>
