<?xml version="1.0" encoding="utf-8"?>
<!-- Generator: Adobe Illustrator 22.1.0, SVG Export Plug-In . SVG Version: 6.00 Build 0)  -->
<svg version="1.1" id="Layer_1" xmlns="http://www.w3.org/2000/svg" xmlns:xlink="http://www.w3.org/1999/xlink" x="0px" y="0px"
	 viewBox="0 0 262 112" style="enable-background:new 0 0 262 112;" xml:space="preserve">
<style type="text/css">
	.st0{fill:url(#SVGID_1_);}
	.st1{fill:url(#SVGID_2_);}
	.st2{fill:#575757;}
	.st3{fill:#7C7A7A;}
	.st4{fill:#FFFFFF;}
	.st5{display:none;}
	.st6{display:inline;fill:url(#SVGID_3_);}
	.st7{display:inline;fill:url(#SVGID_4_);}
	.st8{display:inline;fill:url(#SVGID_5_);}
	.st9{display:inline;fill:url(#SVGID_6_);}
	.st10{display:inline;fill:url(#SVGID_7_);}
</style>
<g>
	
		<linearGradient id="SVGID_1_" gradientUnits="userSpaceOnUse" x1="220.6668" y1="54.9672" x2="259.5069" y2="54.9672" gradientTransform="matrix(1 0 0 -1 0 114)">
		<stop  offset="0" style="stop-color:#98F5C7"/>
		<stop  offset="0.1702" style="stop-color:#87F1C2"/>
		<stop  offset="0.5064" style="stop-color:#5BE5B5"/>
		<stop  offset="0.9731" style="stop-color:#15D29F"/>
		<stop  offset="1" style="stop-color:#11D19E"/>
	</linearGradient>
	<path class="st0" d="M239.6,77.2c2.5-1.2,0.9-3.4,0.9-3.4c30.1-4.6,15.4-29.9,15.4-29.9c8.1,20.4-15.4,18.3-15.4,18.3
		c-1.7-2.2-1.4-19.1-19.9-21.4"/>
	<g>
		
			<linearGradient id="SVGID_2_" gradientUnits="userSpaceOnUse" x1="3.9547" y1="117.473" x2="55.9608" y2="70.2329" gradientTransform="matrix(1 0 0 -1 0 114)">
			<stop  offset="0" style="stop-color:#98F5C7"/>
			<stop  offset="0.1702" style="stop-color:#87F1C2"/>
			<stop  offset="0.5064" style="stop-color:#5BE5B5"/>
			<stop  offset="0.9731" style="stop-color:#15D29F"/>
			<stop  offset="1" style="stop-color:#11D19E"/>
		</linearGradient>
		<path class="st1" d="M62.9,41.7c-2.8,4.6-3.4,10-5.4,9c-12.2,23-26.4-2.9-29.7-5.1c-0.1-0.8-0.2-1.6-0.2-2.4
			c-0.2-1.6-0.4-3.3-1.1-4.7s-1.9-2.4-3.1-3.5c-2.9-2.6-5.6-4.6-8.8-6.7c-2.3-1.5-4.3-3.5-6.2-5.5c-2.9-2.8-5.6-5.1-5.9-9.3
			c-0.1-0.8,2.4-9.4,3.6-8.3c1.1,1,2.5,1.6,4,1.5s2.9-1,3.7-2.2c3.3,2.1,7.1,3.3,11,3.6c4,0.3,7.1-2.3,10.9-3.3
			c9.6-2.4,17.7,6.3,21.8,14c1.8,3.5,3.1,7.8,3.4,11.7C61.3,34.4,61.1,38.2,62.9,41.7z"/>
		<path class="st2" d="M52.5,15.1c5.2,3.2-0.2,19.5-1,24.3c-0.2,1.5-0.5,3.1-1.2,4.4c-0.7,1.4-1.9,2.6-3.4,2.9
			c-2.8,0.6-5.1-1.9-6.8-4.1c-2.7-3.5-5.6-7.4-5.4-11.8c0.2-4.9,4-8.7,7.5-12.1c1.4-1.4,2.9-2.7,4.7-3.6
			C48.6,14.3,50.8,14.1,52.5,15.1z"/>
		<path class="st2" d="M28.8,12.1c-1,2.3,1.1,4,3.3,3.6c3.4-0.5,3.5-4.9,0.1-5.5C30.8,10,29.3,10.8,28.8,12.1z"/>
		<path class="st3" d="M10.5,2.7c0-0.1,0-0.3,0.2-0.4c0.2-0.2,0.5-0.2,0.7-0.1c0.2,0.1,0.3,0.2,0.3,0.4c0.2,0.4,0,0.9-0.5,1
			C10.7,3.6,10.4,3.2,10.5,2.7z"/>
		<path class="st3" d="M6.8,3.6c0.3-1,1.8-1.6,2.8-1.2c0.3,0.1,0.3,0.6,0,0.7s-0.7,0.2-1,0.4C8.2,3.7,8,4,7.7,4.3
			C7.3,4.5,6.7,4.1,6.8,3.6z"/>
		<path class="st4" d="M31.9,10.9c0.4-0.1,0.9,0,1.1,0.4s0.1,0.8-0.3,1c-0.3,0.2-0.7,0.1-0.9-0.2C31.2,11.9,31.2,11.1,31.9,10.9z"/>
	</g>
	<g>
		<g class="st5">
			
				<linearGradient id="SVGID_3_" gradientUnits="userSpaceOnUse" x1="19.3507" y1="55.8172" x2="286.0694" y2="55.8172" gradientTransform="matrix(1 0 0 -1 0 114)">
				<stop  offset="0" style="stop-color:#98F5C7"/>
				<stop  offset="0.1702" style="stop-color:#87F1C2"/>
				<stop  offset="0.5064" style="stop-color:#5BE5B5"/>
				<stop  offset="0.9731" style="stop-color:#15D29F"/>
				<stop  offset="1" style="stop-color:#11D19E"/>
			</linearGradient>
			<path class="st6" d="M57.6,77.2L57.5,57l-9.8,16.4h-4.8l-9.7-15.9v19.7h-10V39.1h8.9l13.4,22l13.1-22h8.9v38.1H57.6z"/>
			
				<linearGradient id="SVGID_4_" gradientUnits="userSpaceOnUse" x1="19.3507" y1="55.8172" x2="286.0694" y2="55.8172" gradientTransform="matrix(1 0 0 -1 0 114)">
				<stop  offset="0" style="stop-color:#98F5C7"/>
				<stop  offset="0.1702" style="stop-color:#87F1C2"/>
				<stop  offset="0.5064" style="stop-color:#5BE5B5"/>
				<stop  offset="0.9731" style="stop-color:#15D29F"/>
				<stop  offset="1" style="stop-color:#11D19E"/>
			</linearGradient>
			<path class="st7" d="M95.5,63.6v13.6H84.7V63.4L70.2,39.1h11.4l9,15.1l9-15.1h10.5L95.5,63.6z"/>
			
				<linearGradient id="SVGID_5_" gradientUnits="userSpaceOnUse" x1="19.3507" y1="55.8172" x2="286.0694" y2="55.8172" gradientTransform="matrix(1 0 0 -1 0 114)">
				<stop  offset="0" style="stop-color:#98F5C7"/>
				<stop  offset="0.1702" style="stop-color:#87F1C2"/>
				<stop  offset="0.5064" style="stop-color:#5BE5B5"/>
				<stop  offset="0.9731" style="stop-color:#15D29F"/>
				<stop  offset="1" style="stop-color:#11D19E"/>
			</linearGradient>
			<path class="st8" d="M159.3,68.9v8.3h-30.6V39.1h29.9v8.3h-19.2v6.4h16.9v8.1h-16.9v7C139.4,68.9,159.3,68.9,159.3,68.9z"/>
			
				<linearGradient id="SVGID_6_" gradientUnits="userSpaceOnUse" x1="19.3507" y1="55.7672" x2="286.0694" y2="55.7672" gradientTransform="matrix(1 0 0 -1 0 114)">
				<stop  offset="0" style="stop-color:#98F5C7"/>
				<stop  offset="0.1702" style="stop-color:#87F1C2"/>
				<stop  offset="0.5064" style="stop-color:#5BE5B5"/>
				<stop  offset="0.9731" style="stop-color:#15D29F"/>
				<stop  offset="1" style="stop-color:#11D19E"/>
			</linearGradient>
			<path class="st9" d="M162.6,73.8l3.5-7.9c3.4,2.2,8.2,3.8,12.6,3.8c4.5,0,6.2-1.3,6.2-3.1c0-6-21.7-1.6-21.7-15.8
				c0-6.8,5.6-12.4,16.9-12.4c5,0,10.1,1.1,13.8,3.3l-3.3,8c-3.6-2-7.2-2.9-10.6-2.9c-4.5,0-6.2,1.5-6.2,3.4
				c0,5.8,21.6,1.5,21.6,15.5c0,6.6-5.6,12.3-16.9,12.3C172.4,78,166.2,76.3,162.6,73.8z"/>
			
				<linearGradient id="SVGID_7_" gradientUnits="userSpaceOnUse" x1="19.3507" y1="55.8172" x2="286.0694" y2="55.8172" gradientTransform="matrix(1 0 0 -1 0 114)">
				<stop  offset="0" style="stop-color:#98F5C7"/>
				<stop  offset="0.1702" style="stop-color:#87F1C2"/>
				<stop  offset="0.5064" style="stop-color:#5BE5B5"/>
				<stop  offset="0.9731" style="stop-color:#15D29F"/>
				<stop  offset="1" style="stop-color:#11D19E"/>
			</linearGradient>
			<path class="st10" d="M226,69.8h-16.1l-3,7.4h-11l16.8-38.1h10.6l16.9,38.1H229L226,69.8z M222.9,61.9L218,49.7l-4.9,12.2H222.9z
				"/>
		</g>
		<g>
			<path class="st4" d="M57.6,77.2L57.5,57l-9.8,16.4h-4.8l-9.7-15.9v19.7h-10V39.1h8.9l13.4,22l13.1-22h8.9v38.1H57.6z"/>
			<path class="st4" d="M95.5,63.6v13.6H84.7V63.4L70.2,39.1h11.4l9,15.1l9-15.1h10.5L95.5,63.6z"/>
			<path class="st4" d="M159.3,68.9v8.3h-30.6V39.1h29.9v8.3h-19.2v6.4h16.9v8.1h-16.9v7C139.4,68.9,159.3,68.9,159.3,68.9z"/>
			<path class="st4" d="M162.6,73.8l3.5-7.9c3.4,2.2,8.2,3.8,12.6,3.8c4.5,0,6.2-1.3,6.2-3.1c0-6-21.7-1.6-21.7-15.8
				c0-6.8,5.6-12.4,16.9-12.4c5,0,10.1,1.1,13.8,3.3l-3.3,8c-3.6-2-7.2-2.9-10.6-2.9c-4.5,0-6.2,1.5-6.2,3.4
				c0,5.8,21.6,1.5,21.6,15.5c0,6.6-5.6,12.3-16.9,12.3C172.4,78,166.2,76.3,162.6,73.8z"/>
			<path class="st4" d="M226,69.8h-16.1l-3,7.4h-11l16.8-38.1h10.6l16.9,38.1H229L226,69.8z M222.9,61.9L218,49.7l-4.9,12.2H222.9z"
				/>
		</g>
	</g>
	<g>
		<path class="st4" d="M71.8,83.7l11.4-0.1c8.5-0.1,14.3,5,14.4,12.9c0.1,7.8-5.6,13.1-14.1,13.2l-11.4,0.1L71.8,83.7z M83.3,105.6
			c5.8-0.1,9.5-3.7,9.5-9.1c-0.1-5.4-3.9-8.9-9.7-8.8l-6.3,0.1l0.2,17.9L83.3,105.6z"/>
		<path class="st4" d="M100.9,96.4c-0.1-7.7,5.8-13.5,13.9-13.6S128.9,88.3,129,96s-5.8,13.5-13.9,13.6
			C107,109.8,101,104.1,100.9,96.4z M124.1,96.1c-0.1-5.3-4-9.1-9.3-9s-9.1,3.9-9,9.3c0.1,5.3,4,9.1,9.3,9
			C120.3,105.3,124.2,101.5,124.1,96.1z"/>
		<path class="st4" d="M132.3,96c-0.1-7.8,5.8-13.5,13.8-13.6c4.2-0.1,7.9,1.4,10.4,4.2l-3.1,3c-1.9-2-4.3-3-7-3
			c-5.4,0.1-9.3,3.9-9.2,9.3s4,9.1,9.4,9c2.7,0,5.1-1.1,6.9-3.2l3.2,2.9c-2.4,2.9-6,4.4-10.3,4.5C138.4,109.4,132.4,103.8,132.3,96z
			"/>
		<path class="st4" d="M166.1,86.7l-8.6,0.1l-0.1-4.1l22.1-0.3l0.1,4.1l-8.6,0.1l0.3,22l-4.8,0.1L166.1,86.7z"/>
		<path class="st4" d="M181.1,95.4c-0.1-7.7,5.8-13.5,13.9-13.6c8.1-0.1,14.1,5.5,14.2,13.2s-5.8,13.5-13.9,13.6
			C187.2,108.8,181.2,103.1,181.1,95.4z M204.3,95.1c-0.1-5.3-4-9.1-9.3-9s-9.1,3.9-9,9.3c0.1,5.3,4,9.1,9.3,9
			C200.5,104.3,204.4,100.5,204.3,95.1z"/>
		<path class="st4" d="M231.6,107.8l-5.4-7.6c-0.3,0-0.7,0-1,0l-5.9,0.1l0.1,7.6l-4.8,0.1l-0.3-26.1l10.7-0.1
			c6.9-0.1,11.1,3.4,11.2,9.1c0,3.9-1.9,6.9-5.4,8.3l6.1,8.5L231.6,107.8z M224.7,85.9L219,86l0.1,10.4l5.7-0.1
			c4.2-0.1,6.4-2,6.4-5.3C231.2,87.8,229,85.9,224.7,85.9z"/>
	</g>
</g>
</svg>
