<?xml version="1.0" encoding="utf-8"?>
<!-- Generator: Adobe Illustrator 24.3.0, SVG Export Plug-In . SVG Version: 6.00 Build 0)  -->
<svg version="1.1" id="Layer_1" xmlns="http://www.w3.org/2000/svg" xmlns:xlink="http://www.w3.org/1999/xlink" x="0px" y="0px"
	 viewBox="0 0 100 100" style="enable-background:new 0 0 100 100;" xml:space="preserve">
<style type="text/css">
	.st0{fill:none;stroke:#050505;stroke-linecap:round;stroke-linejoin:round;stroke-miterlimit:10;}
	.st1{clip-path:url(#SVGID_2_);fill:none;stroke:#050505;stroke-linecap:round;stroke-linejoin:round;stroke-miterlimit:10;}
	.st2{clip-path:url(#SVGID_4_);fill:none;stroke:#050505;stroke-linecap:round;stroke-linejoin:round;stroke-miterlimit:10;}
</style>
<g id="Layer_6">
	<g>
		<path class="st0" d="M75.8,34.09c-0.99,0-1.75,0.8-1.75,1.75c0,0.99,0.8,1.75,1.75,1.75c0.99,0,1.75-0.8,1.75-1.75
			C77.58,34.88,76.78,34.09,75.8,34.09L75.8,34.09z"/>
		<g>
			<g>
				<defs>
					<rect id="SVGID_1_" x="4.76" y="9.36" width="90.47" height="81.29"/>
				</defs>
				<clipPath id="SVGID_2_">
					<use xlink:href="#SVGID_1_"  style="overflow:visible;"/>
				</clipPath>
				<path class="st1" d="M40.65,29.92l2.28-2.28l2.28,2.28c0.69,0.69,1.81,0.69,2.49,0l2.28-2.28l2.28,2.28
					c0.69,0.69,1.81,0.69,2.49,0l2.28-2.28l2.28,2.28c0.69,0.69,1.81,0.69,2.49,0c0.69-0.69,0.69-1.81,0-2.49l-3.54-3.54
					c-0.69-0.69-1.81-0.69-2.49,0l-2.28,2.28l-2.28-2.28c-0.69-0.69-1.81-0.69-2.49,0l-2.28,2.28l-2.28-2.28
					c-0.69-0.69-1.81-0.69-2.49,0l-3.54,3.54c-0.69,0.69-0.69,1.81,0,2.49C38.84,30.6,39.97,30.6,40.65,29.92L40.65,29.92z"/>
				
					<use xlink:href="#SVGID_1_"  style="overflow:visible;fill:none;stroke:#050505;stroke-linecap:round;stroke-linejoin:round;stroke-miterlimit:10;"/>
			</g>
			<g>
				<defs>
					<rect id="SVGID_3_" x="4.76" y="9.36" width="90.47" height="81.29"/>
				</defs>
				<clipPath id="SVGID_4_">
					<use xlink:href="#SVGID_3_"  style="overflow:visible;"/>
				</clipPath>
				<path class="st2" d="M93.48,9.36H6.55c-0.99,0-1.75,0.8-1.75,1.75v67.14c0,0.99,0.8,1.75,1.75,1.75h45.24v8.72
					c0,0.71,0.44,1.37,1.1,1.64c0.66,0.27,1.43,0.11,1.92-0.38l5.81-5.81l5.81,5.81c0.49,0.49,1.26,0.66,1.92,0.38
					c0.66-0.27,1.1-0.9,1.1-1.64v-8.72h24.04c0.99,0,1.75-0.8,1.75-1.75V11.11C95.24,10.15,94.44,9.36,93.48,9.36L93.48,9.36z
					 M50,55.3c0-5.84,4.74-10.61,10.61-10.61s10.61,4.74,10.61,10.61c0,5.81-4.74,10.61-10.61,10.61C54.74,65.89,50,61.12,50,55.3
					L50,55.3z M69.44,66.33c3.34-2.69,5.29-6.74,5.29-11.02c0-7.79-6.33-14.15-14.15-14.15S46.44,47.49,46.44,55.3
					c0,4.3,1.97,8.33,5.29,11.02v3.1H20.45c-0.63-2.47-2.6-4.44-5.07-5.07V25.04c2.47-0.63,4.44-2.6,5.07-5.07h59.11
					c0.63,2.47,2.6,4.44,5.07,5.07v39.31c-2.47,0.63-4.44,2.6-5.07,5.07H69.44V66.33z M65.9,84.47l-4.06-4.06
					c-0.69-0.69-1.81-0.69-2.49,0l-4.06,4.06V68.41c1.67,0.69,3.45,1.04,5.29,1.04c1.84,0,3.62-0.36,5.29-1.04v16.07H65.9z
					 M91.7,76.5H69.44v-3.54h11.65c0.99,0,1.75-0.8,1.75-1.75c0-1.95,1.59-3.54,3.54-3.54c0.99,0,1.75-0.8,1.75-1.75V23.48
					c0-0.99-0.8-1.75-1.75-1.75c-1.95,0-3.54-1.59-3.54-3.54c0-0.99-0.8-1.75-1.75-1.75H18.91c-0.99,0-1.75,0.8-1.75,1.75
					c0,1.95-1.59,3.54-3.54,3.54c-0.99,0-1.75,0.8-1.75,1.75v42.41c0,0.99,0.8,1.75,1.75,1.75c1.95,0,3.54,1.59,3.54,3.54
					c0,0.99,0.8,1.75,1.75,1.75h32.87v3.54H8.3v-63.6h83.4L91.7,76.5L91.7,76.5z"/>
				
					<use xlink:href="#SVGID_3_"  style="overflow:visible;fill:none;stroke:#050505;stroke-linecap:round;stroke-linejoin:round;stroke-miterlimit:10;"/>
			</g>
		</g>
		<path class="st0" d="M67.68,55.3c0-3.89-3.18-7.07-7.07-7.07s-7.07,3.18-7.07,7.07s3.18,7.07,7.07,7.07
			C64.5,62.35,67.68,59.2,67.68,55.3L67.68,55.3z M57.07,55.3c0-1.95,1.59-3.54,3.54-3.54s3.54,1.59,3.54,3.54
			c0,1.95-1.59,3.51-3.54,3.51S57.07,57.25,57.07,55.3L57.07,55.3z"/>
		<path class="st0" d="M68.72,34.09H24.2c-0.99,0-1.75,0.8-1.75,1.75c0,0.99,0.8,1.75,1.75,1.75h44.52c0.99,0,1.75-0.8,1.75-1.75
			C70.51,34.88,69.71,34.09,68.72,34.09L68.72,34.09z"/>
		<path class="st0" d="M39.42,44.7H24.23c-0.99,0-1.75,0.8-1.75,1.75c0,0.99,0.8,1.75,1.75,1.75h15.19c0.99,0,1.75-0.8,1.75-1.75
			C41.17,45.49,40.38,44.7,39.42,44.7L39.42,44.7z"/>
		<path class="st0" d="M39.42,55.3H24.23c-0.99,0-1.75,0.8-1.75,1.75s0.8,1.75,1.75,1.75h15.19c0.99,0,1.75-0.8,1.75-1.75
			S40.38,55.3,39.42,55.3L39.42,55.3z"/>
	</g>
</g>
</svg>
