<?xml version="1.0" encoding="utf-8"?>
<!-- Generator: Adobe Illustrator 24.3.0, SVG Export Plug-In . SVG Version: 6.00 Build 0)  -->
<svg version="1.1" id="Layer_1" xmlns="http://www.w3.org/2000/svg" xmlns:xlink="http://www.w3.org/1999/xlink" x="0px" y="0px"
	 viewBox="0 0 100 100" style="enable-background:new 0 0 100 100;" xml:space="preserve">
<style type="text/css">
	.st0{fill:none;stroke:#050505;stroke-linecap:round;stroke-linejoin:round;stroke-miterlimit:10;}
</style>
<g id="Layer_9">
	<g>
		<path class="st0" d="M22.6,35.3c-0.69,0.69-0.69,1.86,0,2.55s1.86,0.69,2.55,0s0.69-1.83,0-2.55
			C24.45,34.61,23.31,34.61,22.6,35.3z"/>
		<path class="st0" d="M49.51,84.46c0.78-1.08,1.23-2.37,1.23-3.74c0-3.47-2.81-6.29-6.29-6.29h-30.6c-1.68,0-3.26,0.66-4.46,1.86
			c-1.2,1.2-1.86,2.78-1.86,4.46c0,1.41,0.45,2.69,1.23,3.71c-2.87,1.5-4.82,4.52-4.82,7.96v1.8c0,0.99,0.81,1.8,1.8,1.8h46.77
			c0.99,0,1.8-0.81,1.8-1.8v-1.8C54.33,88.98,52.36,85.99,49.51,84.46z M11.94,78.83c0.51-0.51,1.2-0.78,1.92-0.78h30.57
			c1.5,0,2.69,1.2,2.69,2.69c0,0.72-0.27,1.41-0.78,1.92c-0.51,0.51-1.2,0.78-1.92,0.78H13.85c-1.5,0-2.69-1.2-2.69-2.69
			C11.16,80.03,11.43,79.34,11.94,78.83z M7.56,92.43c0-2.96,2.43-5.39,5.39-5.39h0.9h30.57h0.9c2.96,0,5.39,2.43,5.39,5.39H7.56z"
			/>
		<path class="st0" d="M94.4,79.52c-0.6-0.96-1.35-1.8-2.16-2.49l-8.41-7.34c-0.06-0.09-0.15-0.18-0.24-0.27
			c-0.15-0.15-0.3-0.27-0.48-0.36l-5.09-4.43L54.48,44.13c0.96-1.02,1.5-2.34,1.5-3.71c0-1.44-0.57-2.78-1.59-3.83
			c-0.45-0.45-0.96-0.81-1.5-1.05l2.19-2.19c0.6,0.15,1.23,0.24,1.86,0.24c1.86,0,3.68-0.69,5.09-2.1c1.35-1.35,2.1-3.17,2.1-5.09
			s-0.75-3.74-2.1-5.09L46.76,6.05c-1.35-1.35-3.17-2.1-5.09-2.1c-1.92,0-3.74,0.75-5.09,2.1c-1.89,1.89-2.49,4.55-1.86,6.95
			L13.01,34.7c-0.6-0.15-1.23-0.24-1.86-0.24c-1.92,0-3.74,0.75-5.09,2.1c-2.81,2.81-2.81,7.37,0,10.18l15.27,15.27
			c1.41,1.41,3.23,2.1,5.09,2.1s3.68-0.69,5.09-2.1c1.89-1.89,2.49-4.55,1.86-6.95l2.19-2.19c0.27,0.54,0.63,1.05,1.05,1.5
			c1.02,1.02,2.37,1.59,3.8,1.59c1.41,0,2.72-0.54,3.71-1.5l25.06,28.8c0.06,0.12,0.15,0.21,0.24,0.3c0.03,0.03,0.06,0.06,0.09,0.09
			l7.46,8.59c0.18,0.21,0.39,0.45,0.6,0.63c2.04,2.04,4.76,3.17,7.61,3.17c0.51,0,1.02-0.03,1.53-0.09
			c3.38-0.48,6.32-2.49,8.02-5.57C96.61,87.01,96.49,82.76,94.4,79.52z M68.44,76.92l8.47-8.47l2.72,2.37l-8.83,8.83L68.44,76.92z
			 M46.7,51.92l5.27-5.27l22.25,19.4l-8.11,8.11L46.7,51.92z M39.15,8.59c0.69-0.69,1.59-1.05,2.55-1.05s1.86,0.39,2.55,1.05
			l15.27,15.27c0.69,0.69,1.05,1.59,1.05,2.55c0,0.96-0.39,1.86-1.05,2.55c-1.41,1.41-3.68,1.41-5.09,0L39.15,13.68l0,0
			C37.75,12.27,37.75,10,39.15,8.59z M28.97,59.46c-1.41,1.41-3.68,1.41-5.09,0L8.61,44.19c-1.41-1.41-1.41-3.68,0-5.09
			c0.69-0.69,1.59-1.05,2.55-1.05s1.86,0.36,2.55,1.05l15.27,15.27C30.38,55.78,30.38,58.05,28.97,59.46z M16.25,36.56L36.61,16.2
			l15.27,15.27l-5.03,5.03c-0.03,0.03-0.03,0.03-0.06,0.06L36.61,46.74c-0.03,0.03-0.03,0.03-0.06,0.06l-5.03,5.03L16.25,36.56z
			 M40.41,52.37c-0.48,0-0.93-0.18-1.26-0.54c-0.33-0.33-0.54-0.78-0.54-1.29c0-0.48,0.18-0.93,0.51-1.26l10.21-10.21
			c0.69-0.69,1.83-0.66,2.52,0.03c0.33,0.33,0.54,0.78,0.54,1.29c0,0.48-0.18,0.93-0.54,1.26l-1.26,1.26l-0.03,0.03l-7.61,7.64l0,0
			l-1.26,1.26C41.34,52.19,40.89,52.37,40.41,52.37z M91.61,88.63c-1.17,2.07-3.11,3.44-5.39,3.74c-2.25,0.3-4.46-0.42-6.08-2.04
			c-0.15-0.15-0.27-0.27-0.39-0.42c0,0,0,0-0.03-0.03l-6.56-7.52l9.16-9.16l7.52,6.56c0,0,0,0,0.03,0c0.57,0.48,1.05,1.05,1.5,1.71
			C92.72,83.57,92.81,86.44,91.61,88.63z"/>
		<path class="st0" d="M37.87,22.57c-0.69-0.69-1.83-0.69-2.55,0l-7.64,7.64c-0.69,0.69-0.69,1.83,0,2.55
			c0.36,0.36,0.81,0.54,1.26,0.54c0.45,0,0.93-0.18,1.26-0.54l7.64-7.64C38.58,24.43,38.58,23.29,37.87,22.57z"/>
	</g>
</g>
</svg>
