<svg id="Layer_5" data-name="Layer 5" xmlns="http://www.w3.org/2000/svg" viewBox="0 0 275.3 365.98"><defs><style>.cls-1{fill:none;stroke:#050505;stroke-miterlimit:10;stroke-width:3.47px;}</style></defs><title>What-is-an-ESA-letter</title><path class="cls-1" d="M391.9,148.12a8.51,8.51,0,0,0-2.47-5.92l-65-65h0a8.49,8.49,0,0,0-6-2.48H138a17.89,17.89,0,0,0-17.87,17.87V419.39A17.89,17.89,0,0,0,138,437.26h236.1a17.89,17.89,0,0,0,17.87-17.87V148.2S391.9,148.15,391.9,148.12Zm-65-44.4,36,36H327.84a.9.9,0,0,1-.9-.9v-35.1Zm48,315.67a.89.89,0,0,1-.89.89H138a.89.89,0,0,1-.89-.89V92.61a.89.89,0,0,1,.89-.89H310v47.1a17.89,17.89,0,0,0,17.87,17.87h47.1v262.7Z" transform="translate(-118.35 -73.01)"/><path class="cls-1" d="M330.45,357.36H180.22a8.49,8.49,0,1,0,0,17H330.45a8.49,8.49,0,1,0,0-17Z" transform="translate(-118.35 -73.01)"/><path class="cls-1" d="M330.45,308.69H180.22a8.49,8.49,0,1,0,0,17H330.45a8.49,8.49,0,0,0,0-17Z" transform="translate(-118.35 -73.01)"/><path d="M296,209a2.08,2.08,0,0,0-.63,2.86,45.38,45.38,0,0,1,7.18,24.6c0,11.57-4.27,20.45-12.68,26.38-7.59,5.35-18.5,8.18-31.53,8.18s-23.94-2.83-31.53-8.18c-8.42-5.93-12.68-14.81-12.68-26.38,0-24.84,19.83-45,44.21-45a43.56,43.56,0,0,1,30.82,12.75,2.06,2.06,0,0,0,2.91-2.93,47.65,47.65,0,0,0-33.73-13.95c-26.66,0-48.34,22.05-48.34,49.17A38.82,38.82,0,0,0,213.85,254a32.87,32.87,0,0,0,10.57,12.14c8.3,5.84,20,8.94,33.92,8.94s25.62-3.1,33.91-8.94A32.87,32.87,0,0,0,302.82,254a38.82,38.82,0,0,0,3.86-17.62,49.61,49.61,0,0,0-7.83-26.84A2.07,2.07,0,0,0,296,209Z" transform="translate(-118.35 -73.01)"/><path d="M218.53,193.72A19.07,19.07,0,0,0,214.2,182c-3-3.7-6.9-5.74-10.95-5.74s-7.95,2-11,5.74A19.07,19.07,0,0,0,188,193.72a15.29,15.29,0,1,0,30.57,0Zm-15.28,11.16a11.18,11.18,0,0,1-11.16-11.16c0-6.05,5-13.36,11.16-13.36s11.15,7.31,11.15,13.36A11.17,11.17,0,0,1,203.25,204.88Z" transform="translate(-118.35 -73.01)"/><path d="M236.3,182.57a15.31,15.31,0,0,0,15.29-15.29,19,19,0,0,0-4.34-11.76c-3-3.69-6.89-5.73-10.95-5.73s-7.94,2-11,5.73A19,19,0,0,0,221,167.28,15.31,15.31,0,0,0,236.3,182.57Zm0-28.65c6.18,0,11.16,7.31,11.16,13.36a11.16,11.16,0,0,1-22.32,0C225.14,161.23,230.12,153.92,236.3,153.92Z" transform="translate(-118.35 -73.01)"/><path d="M324.38,182c-3-3.7-6.9-5.74-10.95-5.74s-7.95,2-11,5.74a19.07,19.07,0,0,0-4.33,11.75,15.29,15.29,0,1,0,30.57,0A19.07,19.07,0,0,0,324.38,182Zm-10.95,22.91a11.17,11.17,0,0,1-11.16-11.16c0-6.05,5-13.36,11.16-13.36s11.15,7.31,11.15,13.36A11.17,11.17,0,0,1,313.43,204.88Z" transform="translate(-118.35 -73.01)"/><path d="M280.37,182.57a15.31,15.31,0,0,0,15.29-15.29,19,19,0,0,0-4.34-11.76c-3-3.69-6.89-5.73-10.95-5.73s-7.94,2-10.95,5.73a19,19,0,0,0-4.34,11.76A15.31,15.31,0,0,0,280.37,182.57Zm0-28.65c6.18,0,11.16,7.31,11.16,13.36a11.16,11.16,0,0,1-22.31,0C269.22,161.23,274.19,153.92,280.37,153.92Z" transform="translate(-118.35 -73.01)"/><path d="M251.73,253.08H265A2.06,2.06,0,0,0,267,251V239.86h11.16a2.07,2.07,0,0,0,2.06-2.07V224.57a2.06,2.06,0,0,0-2.06-2.06H267V211.35a2.07,2.07,0,0,0-2.06-2.07H251.73a2.07,2.07,0,0,0-2.07,2.07v11.16H238.5a2.06,2.06,0,0,0-2.06,2.06v13.22a2.07,2.07,0,0,0,2.06,2.07h11.16V251A2.06,2.06,0,0,0,251.73,253.08Zm-11.16-17.35v-9.09h11.16a2.07,2.07,0,0,0,2.06-2.07V213.42h9.09v11.15a2.07,2.07,0,0,0,2.07,2.07H276.1v9.09H265a2.07,2.07,0,0,0-2.07,2.06V249h-9.09V237.79a2.06,2.06,0,0,0-2.06-2.06Z" transform="translate(-118.35 -73.01)"/></svg>