<?xml version="1.0" encoding="utf-8"?>
<!-- Generator: Adobe Illustrator 24.3.0, SVG Export Plug-In . SVG Version: 6.00 Build 0)  -->
<svg version="1.1" id="Layer_1" xmlns="http://www.w3.org/2000/svg" xmlns:xlink="http://www.w3.org/1999/xlink" x="0px" y="0px"
	 viewBox="0 0 100 100" style="enable-background:new 0 0 100 100;" xml:space="preserve">
<style type="text/css">
	.st0{fill:none;stroke:#050505;stroke-linecap:round;stroke-linejoin:round;stroke-miterlimit:10;}
</style>
<path class="st0" d="M85.1,22.13c-0.01-0.57-0.23-1.12-0.64-1.53L67.67,3.81l0,0c-0.41-0.41-0.97-0.64-1.55-0.64H19.5
	c-2.55,0-4.61,2.07-4.62,4.62v84.44c0,2.55,2.07,4.61,4.62,4.62h61c2.55,0,4.61-2.07,4.62-4.62V22.15
	C85.12,22.15,85.1,22.14,85.1,22.13z M68.31,10.66l9.3,9.3h-9.06c-0.13,0-0.23-0.1-0.23-0.23v-9.07L68.31,10.66z M80.71,92.22
	c0,0.13-0.1,0.23-0.23,0.23h0H19.5c-0.13,0-0.23-0.1-0.23-0.23l0,0V7.79c0-0.13,0.1-0.23,0.23-0.23h44.44v12.17
	c0,2.55,2.07,4.61,4.62,4.62h12.17v67.87H80.71z"/>
<path class="st0" d="M69.4,59.64H30.58c-1.21,0-2.2,0.98-2.2,2.2c0,1.21,0.98,2.2,2.2,2.2h38.81c1.21,0,2.2-0.98,2.2-2.2
	C71.59,60.63,70.61,59.64,69.4,59.64L69.4,59.64z"/>
<path class="st0" d="M49.99,72.88H30.58c-1.21,0-2.2,0.98-2.2,2.2s0.98,2.2,2.2,2.2h19.41c1.21,0,2.2-0.98,2.2-2.2
	S51.2,72.88,49.99,72.88z"/>
<g>
	<g>
		<g>
			<path class="st0" d="M50,31.02c-5.51,0-9.99,4.48-9.99,9.99c0,5.03,3.74,8.05,9.99,8.05s9.99-3,9.99-8.05
				C59.99,35.5,55.51,31.02,50,31.02z"/>
		</g>
	</g>
	<g>
		<g>
			<path class="st0" d="M45.14,21.27c-2.49,0-4.15,3.09-4.15,5.13c0,2.28,1.87,4.15,4.15,4.15s4.15-1.87,4.15-4.15
				C49.28,24.36,47.63,21.27,45.14,21.27z"/>
		</g>
	</g>
	<g>
		<g>
			<path class="st0" d="M54.89,21.27c-2.49,0-4.15,3.09-4.15,5.13c0,2.28,1.87,4.15,4.15,4.15s4.15-1.87,4.15-4.15
				C59.03,24.36,57.38,21.27,54.89,21.27z"/>
		</g>
	</g>
	<g>
		<g>
			<path class="st0" d="M62.68,27.12c-2.49,0-4.15,3.09-4.15,5.13c0,2.28,1.87,4.15,4.15,4.15c2.28,0,4.15-1.87,4.15-4.15
				C66.82,30.21,65.17,27.12,62.68,27.12z"/>
		</g>
	</g>
	<g>
		<g>
			<path class="st0" d="M37.32,27.12c-2.49,0-4.15,3.09-4.15,5.13c0,2.28,1.87,4.15,4.15,4.15s4.15-1.87,4.15-4.15
				C41.47,30.21,39.81,27.12,37.32,27.12z"/>
		</g>
	</g>
	<g>
		<line class="st0" x1="50" y1="36.77" x2="50" y2="43.32"/>
		<line class="st0" x1="46.72" y1="40.04" x2="53.28" y2="40.04"/>
	</g>
</g>
</svg>
