<?xml version="1.0" encoding="utf-8"?>
<!-- Generator: Adobe Illustrator 24.3.0, SVG Export Plug-In . SVG Version: 6.00 Build 0)  -->
<svg version="1.1" id="Layer_1" xmlns="http://www.w3.org/2000/svg" xmlns:xlink="http://www.w3.org/1999/xlink" x="0px" y="0px"
	 viewBox="0 0 100 100" style="enable-background:new 0 0 100 100;" xml:space="preserve">
<style type="text/css">
	.st0{fill:none;stroke:#050505;stroke-linecap:round;stroke-linejoin:round;stroke-miterlimit:10;}
</style>
<path class="st0" d="M19.5,43.27c-0.32-3.3-1.33-6.53-2.19-9.73c-0.17-0.62-1.13-1.33-1.77-1.4c-2.59-0.3-5.22-0.34-7.83-0.49
	c-3.25-0.17-5.25-1.87-5.52-5.1c-0.07-0.71,0.59-1.75,1.21-2.17c1.03-0.67,2.41-0.79,3.5-1.4c0.99-0.57,1.77-1.5,2.61-2.32
	c1.13-1.08,2.02-2.64,3.35-3.28c4.53-2.19,9.19-0.91,12.32,3.01c0.74,0.91,1.6,1.72,2.29,2.66c5.3,7.51,13.06,10.08,21.66,10.62
	c5.27,0.32,10.62-0.2,15.87,0.15c10.08,0.69,19.17,3.1,23.5,13.92c1.23,3.06,3.87,5.54,5.84,8.33c1.16,1.8,2.32,3.55,3.5,5.27
	c-7.93,0.76-9.68-5.89-13.9-10.72c0,4.26-0.37,7.96,0.15,11.51c0.27,1.8,1.95,3.57,3.35,4.98c1.6,1.58,2.51,3.13,2.27,5.44
	c-0.2,1.77-0.07,3.6-0.1,5.4c-0.1,5.64-0.94,6.31-7,5.4c0.3-0.84,0.37-2.04,0.89-2.29c2.69-1.31,2-3.7,1.75-5.67
	c-0.17-1.43-1.13-3.01-2.22-4.02c-2.24-2.07-5.03-3.57-7.14-5.77c-2.91-3.03-5.52-6.38-8.01-9.76c-0.91-1.26-1.6-2.07-3.18-1.48
	c-2.88,1.11-5.65,2.73-10.79,3.72 M36.14,61.31c-1.95-0.02-2.47,0.7-2.55,2.36c-0.22,4.14-0.39,8.28-0.54,12.42
	c-0.17,5.25-3.92,8.23-9.44,7.17c0.39-0.67,0.59-1.45,1.08-1.75c2.66-1.65,3.25-4.31,3.25-7.02c-0.02-4.85-0.27-9.73-0.62-14.59
	c-0.05-0.76-0.6-1.96-1.09-2.67 M13.81,18.19c-0.17,3.6-0.44,7.19-0.47,10.77c-0.02,2,1.33,2.41,2.98,1.8
	c3.08-1.16,5.27-3.23,6.5-7.07"/>
<path class="st0" d="M77.36,66.95c1.18,1.06,3,4.3,2.87,5.91c-0.15,1.8-0.02,3.6-0.07,5.4c-0.2,5.59-1.06,6.09-7.19,4.93
	c0.32-0.79,0.44-1.43,0.81-1.87c3.3-4.02,3.03-7.1-0.91-10.62c-3.87-3.45-7.76-6.9-11.58-10.42c-0.81-0.76-2.01-2.63-2.65-3.54"/>
<path class="st0" d="M41.36,61.69c0,5.17,0.11,11.29-0.4,16.29c-0.44,4.34-4.39,6.36-9.53,5.12c7.44-5.62,3.52-14.57,4.28-21.57"/>
<path class="st0" d="M65.7,33.98c0,0,1.92,1.95,0.69,4.41s-7.44,3.55-8.03,12.89S42.17,61.97,36.3,61.33
	c-6.09-0.69-17-4.83-16.83-20.33c0,0,12.32-0.74,17.94-9.76"/>
<g>
	<path d="M38.58,45.6h-3.81v3.12h4.43v0.95h-5.59v-8.8h5.53v0.95h-4.37v2.83h3.81V45.6z"/>
	<path d="M43.24,45.75c-1-0.29-1.72-0.64-2.17-1.05s-0.68-0.93-0.68-1.54c0-0.69,0.28-1.27,0.83-1.72c0.55-0.45,1.27-0.68,2.16-0.68
		c0.6,0,1.14,0.12,1.62,0.35c0.47,0.23,0.84,0.56,1.1,0.97c0.26,0.41,0.39,0.86,0.39,1.35h-1.17c0-0.53-0.17-0.95-0.51-1.26
		c-0.34-0.31-0.82-0.46-1.43-0.46c-0.57,0-1.02,0.13-1.34,0.38c-0.32,0.25-0.48,0.6-0.48,1.05c0,0.36,0.15,0.66,0.46,0.91
		c0.3,0.25,0.82,0.48,1.55,0.68c0.73,0.21,1.3,0.43,1.72,0.68s0.72,0.54,0.92,0.87s0.3,0.72,0.3,1.17c0,0.71-0.28,1.28-0.83,1.71
		c-0.56,0.43-1.3,0.64-2.23,0.64c-0.6,0-1.17-0.12-1.69-0.35s-0.93-0.55-1.21-0.95c-0.28-0.4-0.43-0.86-0.43-1.37h1.17
		c0,0.53,0.2,0.95,0.59,1.26c0.39,0.31,0.92,0.46,1.57,0.46c0.61,0,1.08-0.12,1.41-0.37c0.33-0.25,0.49-0.59,0.49-1.02
		c0-0.43-0.15-0.76-0.45-1C44.58,46.21,44.03,45.98,43.24,45.75z"/>
	<path d="M52.84,47.37h-3.69l-0.83,2.3h-1.2l3.36-8.8h1.01l3.37,8.8h-1.19L52.84,47.37z M49.51,46.42h2.99L51,42.3L49.51,46.42z"/>
</g>
</svg>
